<svg xmlns:xlink="http://www.w3.org/1999/xlink" width="500" height="347" viewBox="0 0 500 347" fill="none" xmlns="http://www.w3.org/2000/svg" class="w-[72px] lg:w-[92px] h-auto"><path fill-rule="evenodd" clip-rule="evenodd" d="M253.336 2.52656C204.657 -9.73961 173.611 25.4893 159.13 47.3582C150.442 60.4783 143.553 74.5512 136.666 88.6176C127.336 107.675 118.012 126.72 104.231 143.367C102.444 137.941 100.952 131.997 99.4285 125.925C93.0856 100.651 86.1861 73.1578 55.0906 71.5252C-21.9035 67.483 -1.30497 194.552 17.02 235.871C48.5216 306.901 139.051 304.864 184.56 250.703C185.842 287.214 191.791 339.036 236.593 346.29C282.636 353.745 305.121 300.802 317.778 265.368C348.278 309.195 408.609 297.297 442.589 265.894C455.034 254.393 465.119 241.009 475.226 227.596C479.289 222.205 483.355 216.808 487.58 211.528C502.522 192.761 505.06 164.692 489.245 145.557C466.607 122.436 433.19 123.373 412.855 148.286C405.476 116.682 395.947 80.0189 364.387 64.2203C341.947 52.9867 316.486 58.764 298.426 75.1929C298.009 44.2556 286.825 10.9652 253.336 2.52656ZM38.7843 144.096C40.8875 190.045 46.0495 265.475 114.906 251.944C163.014 242.491 183.323 176.997 190.66 153.334C190.787 152.927 190.909 152.533 191.028 152.151C193.133 145.376 195.088 138.987 196.905 133.048C215.868 71.0732 219.806 58.2051 222.287 168.564C222.546 180.123 222.447 192.593 222.348 205.163C221.956 254.412 221.553 305.183 242.676 308.604C267.706 312.656 291.32 224.408 297.747 200.393L297.865 199.952C320.442 115.595 336.489 154.346 341.488 218.501C342.494 231.409 346.335 246.13 359.255 251.944C397.272 269.052 426.007 230.286 447.614 201.138C451.225 196.267 454.636 191.665 457.859 187.636C457.954 187.523 466.996 176.68 458.88 168.564C451.357 161.041 446.355 167.255 441.95 172.726C441.579 173.187 441.213 173.642 440.849 174.083C393.286 231.842 385.362 197.864 376.106 158.173C370.339 133.446 364.056 106.502 347.349 98.1388C319.4 84.1471 295.792 147.048 277.912 194.689C273.516 206.4 269.467 217.188 265.785 225.686C252.743 255.783 255.25 203.82 257.458 158.048C258.242 141.802 258.988 126.336 258.988 115.595C258.988 110.478 259.305 104.643 259.636 98.5283C260.988 73.5937 262.593 43.9939 244.036 39.3178C205.957 29.7228 184.201 77.155 170.357 107.338C167.398 113.789 164.8 119.453 162.482 123.603C109.468 218.504 76.2037 207.883 60.6009 125.066C60.4997 124.529 60.3969 123.95 60.2891 123.344C59.0011 116.093 56.9975 104.814 48.2991 111.473C38.2194 119.19 38.7843 144.096 38.7843 144.096Z" fill="url(&quot;#gradient-utoackg&quot;)"></path><defs><linearGradient id="gradient-utoackg" x1="47.5" y1="32.965" x2="311.213" y2="412.955" gradientUnits="userSpaceOnUse"><stop offset="0%" stop-color="#ffa04c"></stop><stop offset="100%" stop-color="#f42a8f"></stop></linearGradient><linearGradient id="gradient-utoackg" x1="47.5" y1="32.965" x2="311.213" y2="412.955" gradientUnits="userSpaceOnUse"><stop offset="0%" stop-color="#ffa04c"></stop><stop offset="100%" stop-color="#f42a8f"></stop></linearGradient></defs></svg>