<svg xmlns:xlink="http://www.w3.org/1999/xlink" width="219" height="46" viewBox="0 0 1128 237" fill="none" xmlns="http://www.w3.org/2000/svg" class="w-[153px] lg:w-[219px] h-[32px] lg:h-[46px]"><path fill-rule="evenodd" clip-rule="evenodd" d="M108.383 32.2558C118.245 17.3608 139.391 -6.63367 172.546 1.72085C195.355 7.46846 202.972 30.1426 203.257 51.2141C215.557 40.0243 232.898 36.0894 248.182 43.7406C269.677 54.5011 276.168 79.4725 281.194 100.998C295.044 84.0299 317.803 83.3915 333.222 99.1392C343.994 112.172 342.265 131.29 332.088 144.072C329.211 147.668 326.443 151.342 323.676 155.014L323.674 155.016C316.79 164.152 309.921 173.268 301.445 181.101C278.302 202.49 237.211 210.593 216.437 180.743C207.816 204.877 192.502 240.937 161.142 235.859C130.628 230.918 126.576 195.622 125.703 170.755C94.7067 207.644 33.0478 209.031 11.5922 160.652C-0.888811 132.51 -14.9184 45.9629 37.5219 48.716C58.7009 49.8279 63.4001 68.5535 67.7202 85.7681C68.758 89.9036 69.7739 93.9519 70.9912 97.6479C80.3772 86.3093 86.7278 73.3376 93.0825 60.3577C97.7729 50.7771 102.465 41.192 108.383 32.2558ZM78.2617 171.6C31.3641 180.816 27.8482 129.44 26.4158 98.1445C26.4158 98.1445 26.031 81.1809 32.8963 75.9247C38.8207 71.3888 40.1854 79.0711 41.0626 84.0098C41.136 84.423 41.206 84.8169 41.275 85.183C51.9019 141.589 74.5584 148.823 110.666 84.1862C112.245 81.3596 114.014 77.5023 116.029 73.1084C125.459 52.5505 140.277 20.2443 166.211 26.7795C178.851 29.9644 177.758 50.1249 176.837 67.1079C176.611 71.2729 176.396 75.2469 176.396 78.7324C176.396 86.0477 175.887 96.5815 175.353 107.647C173.849 138.822 172.142 174.215 181.025 153.715C183.533 147.927 186.291 140.579 189.284 132.603C201.462 100.154 217.541 57.3128 236.578 66.8426C247.956 72.5388 252.236 90.8904 256.164 107.732C262.468 134.766 267.865 157.908 300.26 118.569C300.372 118.432 300.485 118.294 300.598 118.155C300.735 117.986 300.872 117.816 301.01 117.644C304.01 113.918 307.417 109.686 312.541 114.809C318.069 120.337 311.91 127.722 311.845 127.8C309.65 130.543 307.327 133.678 304.867 136.996C290.151 156.848 270.58 183.252 244.687 171.6C235.887 167.64 233.271 157.613 232.586 148.821C229.181 105.126 218.251 78.7324 202.874 136.188L202.794 136.488L202.794 136.489C198.417 152.845 182.333 212.951 165.286 210.191C150.899 207.861 151.173 173.281 151.44 139.737V139.737C151.508 131.176 151.575 122.682 151.398 114.809C149.708 39.6437 147.027 48.4082 134.111 90.6193L134.11 90.621C132.873 94.6653 131.541 99.0166 130.108 103.631C130.027 103.891 129.944 104.159 129.858 104.436C124.86 120.553 111.028 165.161 78.2617 171.6ZM395 58V176.636H409.933V79.0725H410.265L446.105 176.636H459.379L495.219 79.0725H495.551V176.636H510.484V58H490.075L452.908 156.559H452.576L415.409 58H395ZM586.451 150.586C584.958 156.394 578.653 167.345 561.728 167.345C543.311 167.345 534.185 153.075 534.185 137.81H601.052C601.052 107.777 588.11 89.6917 561.562 89.6917C536.84 89.6917 520.911 106.118 520.911 134.326C520.911 160.874 536.508 178.959 562.226 178.959C583.299 178.959 595.411 166.349 599.725 150.586H586.451ZM534.185 126.195C534.185 112.589 545.634 101.306 561.562 101.306C577.491 101.306 587.779 112.589 587.779 126.195H534.185ZM621.33 58H608.056V176.636H621.33V58ZM645.642 58H632.368V176.636H645.642V58ZM652.99 134.326C652.99 160.708 668.587 178.959 694.471 178.959C720.189 178.959 735.786 160.708 735.786 134.326C735.786 107.943 720.189 89.6917 694.471 89.6917C668.587 89.6917 652.99 107.943 652.99 134.326ZM722.512 134.326C722.512 152.411 713.386 167.345 694.471 167.345C675.39 167.345 666.264 152.411 666.264 134.326C666.264 116.24 675.39 101.306 694.471 101.306C713.386 101.306 722.512 116.24 722.512 134.326ZM856.378 117.567C856.378 99.8131 848.082 89.6917 830.992 89.6917C818.215 89.6917 809.421 96.3287 803.614 104.293H803.282C799.798 94.8354 792.829 89.6917 780.716 89.6917C767.94 89.6917 760.639 96.1628 756.159 102.136H755.828V92.0146H742.554V176.636H755.828V123.872C755.828 110.764 764.124 101.306 777.398 101.306C790.672 101.306 792.829 109.935 792.829 120.886V176.636H806.103V123.872C806.103 110.764 814.399 101.306 827.673 101.306C840.947 101.306 843.104 109.935 843.104 120.886V176.636H856.378V117.567ZM902.002 101.306C915.608 101.306 919.258 106.948 919.258 113.585C919.258 122.047 912.787 123.872 898.518 126.527C876.616 130.675 862.346 135.653 862.346 154.9C862.346 169.17 873.131 178.959 890.222 178.959C904.159 178.959 913.617 173.982 918.927 166.017H919.258C921.581 175.309 926.393 177.466 934.358 177.466C936.846 177.466 938.672 177.3 942.156 176.139V166.847C933.694 167.842 932.532 164.192 932.532 157.555V116.406C932.532 95.9968 918.097 89.6917 902.002 89.6917C877.445 89.6917 867.324 101.97 866.494 118.231H879.768C880.598 105.952 885.907 101.306 902.002 101.306ZM919.258 143.949C919.258 160.21 907.312 167.345 891.549 167.345C880.598 167.345 875.62 162.533 875.62 154.236C875.62 144.115 883.253 139.967 899.679 136.483C908.639 134.657 916.77 132.334 919.258 129.846V143.949ZM1015.29 117.567C1015.29 98.1538 1002.35 89.6917 986.916 89.6917C972.481 89.6917 963.521 96.1628 959.041 102.136H958.709V92.0146H945.435V176.636H958.709V123.872C958.709 110.764 968.665 101.306 983.598 101.306C996.872 101.306 1002.02 109.935 1002.02 120.886V176.636H1015.29V117.567ZM1026.46 67.6236C1026.46 72.7673 1031.11 75.5881 1034.76 75.5881C1038.57 75.5881 1043.05 72.7673 1043.05 67.6236C1043.05 62.48 1038.57 59.6593 1034.76 59.6593C1031.11 59.6593 1026.46 62.48 1026.46 67.6236ZM1090.83 101.306C1107.76 101.306 1114.06 113.253 1114.73 122.545H1128C1126.01 103.629 1111.74 89.6917 1090.83 89.6917C1066.11 89.6917 1049.85 107.778 1049.85 134.326C1049.85 160.874 1066.11 178.959 1090.83 178.959C1111.74 178.959 1126.84 164.69 1128 145.442H1114.73C1114.06 155.564 1107.92 167.345 1090.83 167.345C1070.76 167.345 1063.12 150.254 1063.12 134.326C1063.12 118.397 1070.76 101.306 1090.83 101.306ZM1041.39 92.0146H1028.12V176.636H1041.39V92.0146Z" fill="#F5F5F5"></path></svg>