<svg width="1262" height="363" viewBox="0 0 1262 363" fill="none" xmlns="http://www.w3.org/2000/svg">
<path d="M116.081 360.578C69.0503 360.578 35.7591 339.968 35.7591 278.666V131.752H0.354126V76.7913H35.7591V0.163574H99.6994V76.7913H174.737V131.752H99.6994V268.625C99.6994 293.463 112.382 303.504 134.047 303.504C148.315 303.504 160.998 300.333 173.68 293.991V346.31C157.827 355.293 140.389 360.578 116.081 360.578ZM364.7 362.164C279.622 362.164 216.739 297.162 216.739 217.892V216.835C216.739 137.037 280.151 70.9782 365.757 70.9782C451.363 70.9782 514.246 135.98 514.246 215.778V216.835C514.246 296.105 450.834 362.164 364.7 362.164ZM365.757 306.146C417.543 306.146 450.306 265.983 450.306 217.892V216.835C450.306 167.688 414.901 126.996 364.7 126.996C313.442 126.996 280.679 167.159 280.679 215.778V216.835C280.679 265.454 316.084 306.146 365.757 306.146ZM578.835 355.822V76.7913H643.304V139.679C660.742 97.93 692.977 69.3928 742.121 71.5066V139.15H738.422C682.408 139.15 643.304 175.615 643.304 249.6V355.822H578.835ZM797.122 355.822V76.7913H861.591V139.679C879.029 97.93 911.264 69.3928 960.408 71.5066V139.15H956.709C900.695 139.15 861.591 175.615 861.591 249.6V355.822H797.122ZM1134.53 362.164C1053.68 362.164 991.325 303.504 991.325 217.364V216.307C991.325 136.508 1047.87 70.9782 1127.66 70.9782C1216.44 70.9782 1261.35 140.736 1261.35 221.063C1261.35 226.876 1260.83 232.689 1260.3 239.031H1055.27C1062.14 284.479 1094.37 309.845 1135.59 309.845C1166.76 309.845 1188.96 298.219 1211.15 276.552L1248.67 309.845C1222.25 341.553 1185.79 362.164 1134.53 362.164ZM1054.74 196.753H1197.94C1193.71 155.533 1169.41 123.296 1127.13 123.296C1088.03 123.296 1060.55 153.419 1054.74 196.753Z" fill="#CDDC39" fill-opacity="0.9"/>
</svg>
