<svg width="853" height="210" viewBox="0 0 853 210" fill="none" xmlns="http://www.w3.org/2000/svg">
<path d="M294.714 11.9164C296.842 6.15557 302.333 2.33012 308.474 2.33012V2.33012C318.746 2.33012 325.838 12.6146 322.186 22.2154L256.392 195.183C253.533 202.701 246.326 207.67 238.283 207.67V207.67C230.215 207.67 222.991 202.67 220.149 195.118L165.032 48.6408L109.317 195.167C106.454 202.694 99.239 207.67 91.186 207.67V207.67C83.1242 207.67 75.9029 202.683 73.0468 195.145L7.82597 22.9876C4.04519 13.0078 11.4183 2.33012 22.0902 2.33012V2.33012C28.4947 2.33012 34.2172 6.33091 36.4163 12.346L92.2795 165.146L149.433 13.6267C151.991 6.84503 158.519 2.38882 165.767 2.47701V2.47701C172.911 2.56393 179.261 7.05026 181.729 13.7551L237.785 166.019L294.714 11.9164ZM389.197 207.67C380.239 207.67 372.978 200.408 372.978 191.45V18.5499C372.978 9.59196 380.239 2.33012 389.197 2.33012V2.33012C398.155 2.33012 405.417 9.59196 405.417 18.5499V191.45C405.417 200.408 398.155 207.67 389.197 207.67V207.67ZM537.818 210C520.602 210 504.749 207.864 490.261 203.592C479.66 200.42 470.157 196.123 461.754 190.702C456.719 187.454 455.422 180.843 458.213 175.541V175.541C461.81 168.707 470.642 166.768 477.313 170.659C484.339 174.756 491.489 177.967 498.765 180.291C510.524 183.786 523.645 185.534 538.133 185.534C554.722 185.534 567.529 182.719 576.557 177.087C585.587 171.262 590.099 163.107 590.099 152.621C590.099 143.689 585.902 137.087 577.501 132.816C569.104 128.349 555.667 124.175 537.188 120.291C519.551 116.796 505.064 112.816 493.725 108.35C482.387 103.883 473.466 97.8641 466.955 90.2913C460.656 82.5244 457.507 72.7184 457.507 60.8738C457.507 48.8349 460.868 38.2525 467.585 29.1262C474.514 20 484.277 12.9126 496.875 7.86407C509.473 2.62135 524.066 0 540.653 0C556.191 0 570.784 2.23302 584.43 6.69902C594.62 9.84018 603.447 14.0312 610.913 19.2721C615.597 22.5606 616.641 28.8614 614.032 33.9553V33.9553C610.417 41.012 601.332 43.0346 594.474 39.0549C588.194 35.4102 581.802 32.4889 575.297 30.2913C564.589 26.4077 553.147 24.466 540.968 24.466C525.011 24.466 512.413 27.5727 503.174 33.7864C494.146 39.8058 489.631 48.2523 489.631 59.1262C489.631 68.4466 493.622 75.5341 501.599 80.3884C509.579 85.0486 522.386 89.3203 540.023 93.2039C558.501 97.0875 573.407 101.165 584.745 105.437C596.295 109.515 605.429 115.243 612.146 122.621C619.074 129.806 622.539 139.223 622.539 150.874C622.539 162.718 619.074 173.107 612.146 182.039C605.429 190.971 595.665 197.864 582.856 202.718C570.258 207.573 555.246 210 537.818 210ZM826.674 183.911C835.945 192.278 830.026 207.67 817.538 207.67V207.67C814.209 207.67 810.996 206.452 808.502 204.246L703.085 110.971V191.45C703.085 200.408 695.823 207.67 686.865 207.67V207.67C677.907 207.67 670.646 200.408 670.646 191.45V18.5499C670.646 9.59196 677.907 2.33012 686.865 2.33012V2.33012C695.823 2.33012 703.085 9.59196 703.085 18.5499V95.8253L803.876 5.70268C806.305 3.5308 809.449 2.33012 812.707 2.33012V2.33012C824.902 2.33012 830.621 17.4115 821.493 25.4973L735.525 101.65L826.674 183.911Z" fill="#1C82EF"/>
</svg>
